<?xml version="1.0" encoding="UTF-8" standalone="no"?>
<!DOCTYPE svg PUBLIC "-//W3C//DTD SVG 1.1//EN"
 "http://www.w3.org/Graphics/SVG/1.1/DTD/svg11.dtd">
<!-- Generated by graphviz version 2.40.1 (20161225.0304)
 -->
<!-- Title: CFG for &#39;main&#39; function Pages: 1 -->
<svg width="1107pt" height="1778pt"
 viewBox="0.00 0.00 1106.55 1777.80" xmlns="http://www.w3.org/2000/svg" xmlns:xlink="http://www.w3.org/1999/xlink">
<g id="graph0" class="graph" transform="scale(1 1) rotate(0) translate(4 1773.8)">
<title>CFG for &#39;main&#39; function</title>
<polygon fill="#ffffff" stroke="transparent" points="-4,4 -4,-1773.8 1102.5548,-1773.8 1102.5548,4 -4,4"/>
<text text-anchor="middle" x="549.2774" y="-8.2" font-family="Times,serif" font-size="14.00" fill="#000000">CFG for &#39;main&#39; function</text>
<!-- Node0x558277e79bb0 -->
<g id="node1" class="node">
<title>Node0x558277e79bb0</title>
<polygon fill="#b70d28" fill-opacity="0.439216" stroke="#b70d28" points="18.0357,-1450.9 18.0357,-1769.3 508.3431,-1769.3 508.3431,-1450.9 18.0357,-1450.9"/>
<text text-anchor="start" x="26.0357" y="-1752.7" font-family="Times,serif" font-size="14.00" fill="#000000">entry:</text>
<text text-anchor="start" x="26.0357" y="-1735.9" font-family="Times,serif" font-size="14.00" fill="#000000"> %a = alloca i32, align 4</text>
<text text-anchor="start" x="26.0357" y="-1719.1" font-family="Times,serif" font-size="14.00" fill="#000000"> %b = alloca i32, align 4</text>
<text text-anchor="start" x="26.0357" y="-1702.3" font-family="Times,serif" font-size="14.00" fill="#000000"> %i = bitcast i32* %a to i8*</text>
<text text-anchor="start" x="26.0357" y="-1685.5" font-family="Times,serif" font-size="14.00" fill="#000000"> call void @llvm.lifetime.start.p0i8(i64 4, i8* nonnull %i) #7</text>
<text text-anchor="start" x="26.0357" y="-1668.7" font-family="Times,serif" font-size="14.00" fill="#000000"> %i1 = bitcast i32* %b to i8*</text>
<text text-anchor="start" x="26.0357" y="-1651.9" font-family="Times,serif" font-size="14.00" fill="#000000"> call void @llvm.lifetime.start.p0i8(i64 4, i8* nonnull %i1) #7</text>
<text text-anchor="start" x="26.0357" y="-1635.1" font-family="Times,serif" font-size="14.00" fill="#000000"> %call = call nonnull align 8 dereferenceable(16)</text>
<text text-anchor="start" x="26.0357" y="-1618.3" font-family="Times,serif" font-size="14.00" fill="#000000">... %&quot;class.std::basic_istream&quot;* @_ZNSirsERi(%&quot;class.std::basic_istream&quot;* nonnull</text>
<text text-anchor="start" x="26.0357" y="-1601.5" font-family="Times,serif" font-size="14.00" fill="#000000">... align 8 dereferenceable(16) @_ZSt3cin, i32* nonnull align 4</text>
<text text-anchor="start" x="26.0357" y="-1584.7" font-family="Times,serif" font-size="14.00" fill="#000000">... dereferenceable(4) %a)</text>
<text text-anchor="start" x="26.0357" y="-1567.9" font-family="Times,serif" font-size="14.00" fill="#000000"> %call1 = call nonnull align 8 dereferenceable(16)</text>
<text text-anchor="start" x="26.0357" y="-1551.1" font-family="Times,serif" font-size="14.00" fill="#000000">... %&quot;class.std::basic_istream&quot;* @_ZNSirsERi(%&quot;class.std::basic_istream&quot;* nonnull</text>
<text text-anchor="start" x="26.0357" y="-1534.3" font-family="Times,serif" font-size="14.00" fill="#000000">... align 8 dereferenceable(16) %call, i32* nonnull align 4 dereferenceable(4) %b)</text>
<text text-anchor="start" x="26.0357" y="-1517.5" font-family="Times,serif" font-size="14.00" fill="#000000"> %i2 = load i32, i32* %a, align 4, !tbaa !4</text>
<text text-anchor="start" x="26.0357" y="-1500.7" font-family="Times,serif" font-size="14.00" fill="#000000"> %cmp = icmp sgt i32 %i2, 5</text>
<text text-anchor="start" x="26.0357" y="-1483.9" font-family="Times,serif" font-size="14.00" fill="#000000"> br i1 %cmp, label %if.then, label %if.else</text>
<polyline fill="none" stroke="#b70d28" points="18.0357,-1475.7 508.3431,-1475.7 "/>
<text text-anchor="middle" x="140.312" y="-1459.1" font-family="Times,serif" font-size="14.00" fill="#000000">T</text>
<polyline fill="none" stroke="#b70d28" points="262.5883,-1450.9 262.5883,-1475.7 "/>
<text text-anchor="middle" x="384.9796" y="-1459.1" font-family="Times,serif" font-size="14.00" fill="#000000">F</text>
</g>
<!-- Node0x558277e7b5f0 -->
<g id="node2" class="node">
<title>Node0x558277e7b5f0</title>
<polygon fill="#e36c55" fill-opacity="0.439216" stroke="#3d50c3" points="0,-1271.5 0,-1413.9 252.3788,-1413.9 252.3788,-1271.5 0,-1271.5"/>
<text text-anchor="start" x="8" y="-1397.3" font-family="Times,serif" font-size="14.00" fill="#000000">if.then: </text>
<text text-anchor="start" x="8" y="-1380.5" font-family="Times,serif" font-size="14.00" fill="#000000"> %mul = mul nsw i32 %i2, 9</text>
<text text-anchor="start" x="8" y="-1363.7" font-family="Times,serif" font-size="14.00" fill="#000000"> %add = add nsw i32 %mul, 6</text>
<text text-anchor="start" x="8" y="-1346.9" font-family="Times,serif" font-size="14.00" fill="#000000"> store i32 %add, i32* %a, align 4, !tbaa !4</text>
<text text-anchor="start" x="8" y="-1330.1" font-family="Times,serif" font-size="14.00" fill="#000000"> %i3 = load i32, i32* %b, align 4, !tbaa !4</text>
<text text-anchor="start" x="8" y="-1313.3" font-family="Times,serif" font-size="14.00" fill="#000000"> %mul2 = mul nsw i32 %i3, 3</text>
<text text-anchor="start" x="8" y="-1296.5" font-family="Times,serif" font-size="14.00" fill="#000000"> %add3 = add nsw i32 %mul2, 1</text>
<text text-anchor="start" x="8" y="-1279.7" font-family="Times,serif" font-size="14.00" fill="#000000"> br label %if.end</text>
</g>
<!-- Node0x558277e79bb0&#45;&gt;Node0x558277e7b5f0 -->
<g id="edge1" class="edge">
<title>Node0x558277e79bb0:s0&#45;&gt;Node0x558277e7b5f0</title>
<path fill="none" stroke="#000000" d="M140.1894,-1451.1C140.1894,-1442.3452 139.7347,-1433.2252 138.9891,-1424.156"/>
<polygon fill="#000000" stroke="#000000" points="142.4515,-1423.5896 138.0326,-1413.9603 135.4821,-1424.2436 142.4515,-1423.5896"/>
</g>
<!-- Node0x558277e7b6c0 -->
<g id="node3" class="node">
<title>Node0x558277e7b6c0</title>
<polygon fill="#e36c55" fill-opacity="0.439216" stroke="#3d50c3" points="270.5,-1288.3 270.5,-1397.1 529.8788,-1397.1 529.8788,-1288.3 270.5,-1288.3"/>
<text text-anchor="start" x="278.5" y="-1380.5" font-family="Times,serif" font-size="14.00" fill="#000000">if.else: </text>
<text text-anchor="start" x="278.5" y="-1363.7" font-family="Times,serif" font-size="14.00" fill="#000000"> %add4 = add nsw i32 %i2, 8</text>
<text text-anchor="start" x="278.5" y="-1346.9" font-family="Times,serif" font-size="14.00" fill="#000000"> store i32 %add4, i32* %a, align 4, !tbaa !4</text>
<text text-anchor="start" x="278.5" y="-1330.1" font-family="Times,serif" font-size="14.00" fill="#000000"> %i4 = load i32, i32* %b, align 4, !tbaa !4</text>
<text text-anchor="start" x="278.5" y="-1313.3" font-family="Times,serif" font-size="14.00" fill="#000000"> %add5 = add nsw i32 %i4, 9</text>
<text text-anchor="start" x="278.5" y="-1296.5" font-family="Times,serif" font-size="14.00" fill="#000000"> br label %if.end</text>
</g>
<!-- Node0x558277e79bb0&#45;&gt;Node0x558277e7b6c0 -->
<g id="edge2" class="edge">
<title>Node0x558277e79bb0:s1&#45;&gt;Node0x558277e7b6c0</title>
<path fill="none" stroke="#000000" d="M385.1894,-1451.1C385.1894,-1436.9585 386.4575,-1421.8765 388.2563,-1407.5963"/>
<polygon fill="#000000" stroke="#000000" points="391.7681,-1407.7455 389.6493,-1397.3647 384.8321,-1406.8011 391.7681,-1407.7455"/>
</g>
<!-- Node0x558277e7c460 -->
<g id="node4" class="node">
<title>Node0x558277e7c460</title>
<polygon fill="#b70d28" fill-opacity="0.439216" stroke="#b70d28" points="75.3328,-1033.7 75.3328,-1234.5 451.046,-1234.5 451.046,-1033.7 75.3328,-1033.7"/>
<text text-anchor="start" x="83.3328" y="-1217.9" font-family="Times,serif" font-size="14.00" fill="#000000">if.end: </text>
<text text-anchor="start" x="83.3328" y="-1201.1" font-family="Times,serif" font-size="14.00" fill="#000000"> %storemerge = phi i32 [ %add5, %if.else ], [ %add3, %if.then ]</text>
<text text-anchor="start" x="83.3328" y="-1184.3" font-family="Times,serif" font-size="14.00" fill="#000000"> store i32 %storemerge, i32* %b, align 4, !tbaa !4</text>
<text text-anchor="start" x="83.3328" y="-1167.5" font-family="Times,serif" font-size="14.00" fill="#000000"> %i5 = load i32, i32* %a, align 4, !tbaa !4</text>
<text text-anchor="start" x="83.3328" y="-1150.7" font-family="Times,serif" font-size="14.00" fill="#000000"> %add6 = add nsw i32 %i5, 7</text>
<text text-anchor="start" x="83.3328" y="-1133.9" font-family="Times,serif" font-size="14.00" fill="#000000"> store i32 %add6, i32* %a, align 4, !tbaa !4</text>
<text text-anchor="start" x="83.3328" y="-1117.1" font-family="Times,serif" font-size="14.00" fill="#000000"> %mul7 = mul nsw i32 %storemerge, 6</text>
<text text-anchor="start" x="83.3328" y="-1100.3" font-family="Times,serif" font-size="14.00" fill="#000000"> store i32 %mul7, i32* %b, align 4, !tbaa !4</text>
<text text-anchor="start" x="83.3328" y="-1083.5" font-family="Times,serif" font-size="14.00" fill="#000000"> %cmp8 = icmp sgt i32 %mul7, 6</text>
<text text-anchor="start" x="83.3328" y="-1066.7" font-family="Times,serif" font-size="14.00" fill="#000000"> br i1 %cmp8, label %end_label, label %if.else10</text>
<polyline fill="none" stroke="#b70d28" points="75.3328,-1058.5 451.046,-1058.5 "/>
<text text-anchor="middle" x="169.1091" y="-1041.9" font-family="Times,serif" font-size="14.00" fill="#000000">T</text>
<polyline fill="none" stroke="#b70d28" points="262.8854,-1033.7 262.8854,-1058.5 "/>
<text text-anchor="middle" x="356.7767" y="-1041.9" font-family="Times,serif" font-size="14.00" fill="#000000">F</text>
</g>
<!-- Node0x558277e7b5f0&#45;&gt;Node0x558277e7c460 -->
<g id="edge3" class="edge">
<title>Node0x558277e7b5f0&#45;&gt;Node0x558277e7c460</title>
<path fill="none" stroke="#000000" d="M172.9539,-1271.4951C179.0091,-1262.2752 185.3172,-1252.6704 191.66,-1243.0127"/>
<polygon fill="#000000" stroke="#000000" points="194.6733,-1244.8002 197.2374,-1234.5203 188.8223,-1240.9575 194.6733,-1244.8002"/>
</g>
<!-- Node0x558277e7b6c0&#45;&gt;Node0x558277e7c460 -->
<g id="edge4" class="edge">
<title>Node0x558277e7b6c0&#45;&gt;Node0x558277e7c460</title>
<path fill="none" stroke="#000000" d="M364.3732,-1288.1653C355.2757,-1274.3132 345.1736,-1258.9314 334.9742,-1243.4015"/>
<polygon fill="#000000" stroke="#000000" points="337.7186,-1241.2045 329.3036,-1234.7673 331.8677,-1245.0472 337.7186,-1241.2045"/>
</g>
<!-- Node0x558277e7d080 -->
<g id="node5" class="node">
<title>Node0x558277e7d080</title>
<polygon fill="#b70d28" fill-opacity="0.439216" stroke="#b70d28" points="207.3153,-25.3 207.3153,-100.5 569.0635,-100.5 569.0635,-25.3 207.3153,-25.3"/>
<text text-anchor="start" x="215.3153" y="-83.9" font-family="Times,serif" font-size="14.00" fill="#000000">end_label: </text>
<text text-anchor="start" x="215.3153" y="-67.1" font-family="Times,serif" font-size="14.00" fill="#000000"> call void @llvm.lifetime.end.p0i8(i64 4, i8* nonnull %i1) #7</text>
<text text-anchor="start" x="215.3153" y="-50.3" font-family="Times,serif" font-size="14.00" fill="#000000"> call void @llvm.lifetime.end.p0i8(i64 4, i8* nonnull %i) #7</text>
<text text-anchor="start" x="215.3153" y="-33.5" font-family="Times,serif" font-size="14.00" fill="#000000"> ret i32 0</text>
</g>
<!-- Node0x558277e7c460&#45;&gt;Node0x558277e7d080 -->
<g id="edge5" class="edge">
<title>Node0x558277e7c460:s0&#45;&gt;Node0x558277e7d080</title>
<path fill="none" stroke="#000000" d="M75.1894,-1046.1C-38.671,-1046.1 36.1894,-906.7604 36.1894,-792.9 36.1894,-792.9 36.1894,-792.9 36.1894,-446.9 36.1894,-349.1074 137.2661,-148.8075 150.1894,-137 162.8385,-125.443 190.4328,-113.9461 222.5167,-103.5777"/>
<polygon fill="#000000" stroke="#000000" points="223.656,-106.8884 232.1392,-100.5413 221.5494,-100.2129 223.656,-106.8884"/>
</g>
<!-- Node0x558277e7d100 -->
<g id="node6" class="node">
<title>Node0x558277e7d100</title>
<polygon fill="#e36c55" fill-opacity="0.439216" stroke="#3d50c3" points="274.4239,-913.5 274.4239,-996.7 569.9549,-996.7 569.9549,-913.5 274.4239,-913.5"/>
<text text-anchor="start" x="282.4239" y="-980.1" font-family="Times,serif" font-size="14.00" fill="#000000">if.else10: </text>
<text text-anchor="start" x="282.4239" y="-963.3" font-family="Times,serif" font-size="14.00" fill="#000000"> %cmp11 = icmp sgt i32 %i5, 2</text>
<text text-anchor="start" x="282.4239" y="-946.5" font-family="Times,serif" font-size="14.00" fill="#000000"> br i1 %cmp11, label %if.then12, label %if.else30</text>
<polyline fill="none" stroke="#3d50c3" points="274.4239,-938.3 569.9549,-938.3 "/>
<text text-anchor="middle" x="348.2002" y="-921.7" font-family="Times,serif" font-size="14.00" fill="#000000">T</text>
<polyline fill="none" stroke="#3d50c3" points="421.9765,-913.5 421.9765,-938.3 "/>
<text text-anchor="middle" x="495.8678" y="-921.7" font-family="Times,serif" font-size="14.00" fill="#000000">F</text>
</g>
<!-- Node0x558277e7c460&#45;&gt;Node0x558277e7d100 -->
<g id="edge6" class="edge">
<title>Node0x558277e7c460:s1&#45;&gt;Node0x558277e7d100</title>
<path fill="none" stroke="#000000" d="M450.1894,-1046.1C469.7149,-1046.1 465.2597,-1026.7248 454.7972,-1005.8549"/>
<polygon fill="#000000" stroke="#000000" points="457.797,-1004.0423 449.9978,-996.8713 451.6228,-1007.3408 457.797,-1004.0423"/>
</g>
<!-- Node0x558277e7d370 -->
<g id="node7" class="node">
<title>Node0x558277e7d370</title>
<polygon fill="#f7ac8e" fill-opacity="0.439216" stroke="#3d50c3" points="197.5112,-717.7 197.5112,-868.1 498.8676,-868.1 498.8676,-717.7 197.5112,-717.7"/>
<text text-anchor="start" x="205.5112" y="-851.5" font-family="Times,serif" font-size="14.00" fill="#000000">if.then12: </text>
<text text-anchor="start" x="205.5112" y="-834.7" font-family="Times,serif" font-size="14.00" fill="#000000"> %add13 = add nsw i32 %i5, 14</text>
<text text-anchor="start" x="205.5112" y="-817.9" font-family="Times,serif" font-size="14.00" fill="#000000"> store i32 %add13, i32* %a, align 4, !tbaa !4</text>
<text text-anchor="start" x="205.5112" y="-801.1" font-family="Times,serif" font-size="14.00" fill="#000000"> %mul14 = mul i32 %storemerge, 36</text>
<text text-anchor="start" x="205.5112" y="-784.3" font-family="Times,serif" font-size="14.00" fill="#000000"> store i32 %mul14, i32* %b, align 4, !tbaa !4</text>
<text text-anchor="start" x="205.5112" y="-767.5" font-family="Times,serif" font-size="14.00" fill="#000000"> %cmp15 = icmp eq i32 %add6, 10</text>
<text text-anchor="start" x="205.5112" y="-750.7" font-family="Times,serif" font-size="14.00" fill="#000000"> br i1 %cmp15, label %new_label, label %if.end17</text>
<polyline fill="none" stroke="#3d50c3" points="197.5112,-742.5 498.8676,-742.5 "/>
<text text-anchor="middle" x="272.7875" y="-725.9" font-family="Times,serif" font-size="14.00" fill="#000000">T</text>
<polyline fill="none" stroke="#3d50c3" points="348.0638,-717.7 348.0638,-742.5 "/>
<text text-anchor="middle" x="423.4551" y="-725.9" font-family="Times,serif" font-size="14.00" fill="#000000">F</text>
</g>
<!-- Node0x558277e7d100&#45;&gt;Node0x558277e7d370 -->
<g id="edge7" class="edge">
<title>Node0x558277e7d100:s0&#45;&gt;Node0x558277e7d370</title>
<path fill="none" stroke="#000000" d="M348.1894,-913.1C348.1894,-901.8826 348.1894,-890.0764 348.1894,-878.4231"/>
<polygon fill="#000000" stroke="#000000" points="351.6895,-878.2404 348.1894,-868.2405 344.6895,-878.2405 351.6895,-878.2404"/>
</g>
<!-- Node0x558277e7d3f0 -->
<g id="node8" class="node">
<title>Node0x558277e7d3f0</title>
<polygon fill="#f7ac8e" fill-opacity="0.439216" stroke="#3d50c3" points="582.2035,-709.3 582.2035,-876.5 966.1753,-876.5 966.1753,-709.3 582.2035,-709.3"/>
<text text-anchor="start" x="590.2035" y="-859.9" font-family="Times,serif" font-size="14.00" fill="#000000">if.else30: </text>
<text text-anchor="start" x="590.2035" y="-843.1" font-family="Times,serif" font-size="14.00" fill="#000000"> %tau = call i32 (...) @llvm.tau.i32(i32 %storemerge, i32 %add5)</text>
<text text-anchor="start" x="590.2035" y="-826.3" font-family="Times,serif" font-size="14.00" fill="#000000"> %add31 = add nsw i32 %i5, 12</text>
<text text-anchor="start" x="590.2035" y="-809.5" font-family="Times,serif" font-size="14.00" fill="#000000"> store i32 %add31, i32* %a, align 4, !tbaa !4</text>
<text text-anchor="start" x="590.2035" y="-792.7" font-family="Times,serif" font-size="14.00" fill="#000000"> %mul32 = mul i32 %storemerge, 36</text>
<text text-anchor="start" x="590.2035" y="-775.9" font-family="Times,serif" font-size="14.00" fill="#000000"> store i32 %mul32, i32* %b, align 4, !tbaa !4</text>
<text text-anchor="start" x="590.2035" y="-759.1" font-family="Times,serif" font-size="14.00" fill="#000000"> %cmp33 = icmp sgt i32 %mul32, 16</text>
<text text-anchor="start" x="590.2035" y="-742.3" font-family="Times,serif" font-size="14.00" fill="#000000"> br i1 %cmp33, label %if.then34, label %if.else37</text>
<polyline fill="none" stroke="#3d50c3" points="582.2035,-734.1 966.1753,-734.1 "/>
<text text-anchor="middle" x="677.9798" y="-717.5" font-family="Times,serif" font-size="14.00" fill="#000000">T</text>
<polyline fill="none" stroke="#3d50c3" points="773.7561,-709.3 773.7561,-734.1 "/>
<text text-anchor="middle" x="869.6474" y="-717.5" font-family="Times,serif" font-size="14.00" fill="#000000">F</text>
</g>
<!-- Node0x558277e7d100&#45;&gt;Node0x558277e7d3f0 -->
<g id="edge8" class="edge">
<title>Node0x558277e7d100:s1&#45;&gt;Node0x558277e7d3f0</title>
<path fill="none" stroke="#000000" d="M570.1894,-926.1C611.5223,-926.1 651.0244,-906.692 684.071,-882.6927"/>
<polygon fill="#000000" stroke="#000000" points="686.4285,-885.2997 692.3308,-876.5012 682.2299,-879.6986 686.4285,-885.2997"/>
</g>
<!-- Node0x558277e7d940 -->
<g id="node9" class="node">
<title>Node0x558277e7d940</title>
<polygon fill="#ef886b" fill-opacity="0.439216" stroke="#3d50c3" points="634.7035,-367.3 634.7035,-526.5 1025.6753,-526.5 1025.6753,-367.3 634.7035,-367.3"/>
<text text-anchor="start" x="642.7035" y="-509.9" font-family="Times,serif" font-size="14.00" fill="#000000">new_label: </text>
<text text-anchor="start" x="642.7035" y="-493.1" font-family="Times,serif" font-size="14.00" fill="#000000"> %tau2 = call i32 (...) @llvm.tau.i32(i32 %storemerge, i32 %add5)</text>
<text text-anchor="start" x="642.7035" y="-476.3" font-family="Times,serif" font-size="14.00" fill="#000000"> %i7 = load i32, i32* %a, align 4, !tbaa !4</text>
<text text-anchor="start" x="642.7035" y="-459.5" font-family="Times,serif" font-size="14.00" fill="#000000"> %add41 = add nsw i32 %i7, 7</text>
<text text-anchor="start" x="642.7035" y="-442.7" font-family="Times,serif" font-size="14.00" fill="#000000"> store i32 %add41, i32* %a, align 4, !tbaa !4</text>
<text text-anchor="start" x="642.7035" y="-425.9" font-family="Times,serif" font-size="14.00" fill="#000000"> %i8 = load i32, i32* %b, align 4, !tbaa !4</text>
<text text-anchor="start" x="642.7035" y="-409.1" font-family="Times,serif" font-size="14.00" fill="#000000"> %add42 = add nsw i32 %i8, 6</text>
<text text-anchor="start" x="642.7035" y="-392.3" font-family="Times,serif" font-size="14.00" fill="#000000"> store i32 %add42, i32* %b, align 4, !tbaa !4</text>
<text text-anchor="start" x="642.7035" y="-375.5" font-family="Times,serif" font-size="14.00" fill="#000000"> br label %end_label</text>
</g>
<!-- Node0x558277e7d370&#45;&gt;Node0x558277e7d940 -->
<g id="edge9" class="edge">
<title>Node0x558277e7d370:s0&#45;&gt;Node0x558277e7d940</title>
<path fill="none" stroke="#000000" d="M273.1894,-717.9C273.1894,-616.3466 420.7172,-739.6213 497.1894,-672.8 536.0755,-638.8214 499.4448,-600.2693 535.1894,-563 535.7456,-562.4201 575.1926,-546.7979 625.0677,-527.1908"/>
<polygon fill="#000000" stroke="#000000" points="626.4678,-530.4012 634.4948,-523.4861 623.9075,-523.8862 626.4678,-530.4012"/>
</g>
<!-- Node0x558277e7d9c0 -->
<g id="node10" class="node">
<title>Node0x558277e7d9c0</title>
<polygon fill="#ead5c9" fill-opacity="0.439216" stroke="#3d50c3" points="192.4239,-576.3 192.4239,-659.5 487.9549,-659.5 487.9549,-576.3 192.4239,-576.3"/>
<text text-anchor="start" x="200.4239" y="-642.9" font-family="Times,serif" font-size="14.00" fill="#000000">if.end17: </text>
<text text-anchor="start" x="200.4239" y="-626.1" font-family="Times,serif" font-size="14.00" fill="#000000"> %cmp18 = icmp sgt i32 %mul14, 15</text>
<text text-anchor="start" x="200.4239" y="-609.3" font-family="Times,serif" font-size="14.00" fill="#000000"> br i1 %cmp18, label %if.then19, label %if.else22</text>
<polyline fill="none" stroke="#3d50c3" points="192.4239,-601.1 487.9549,-601.1 "/>
<text text-anchor="middle" x="266.2002" y="-584.5" font-family="Times,serif" font-size="14.00" fill="#000000">T</text>
<polyline fill="none" stroke="#3d50c3" points="339.9765,-576.3 339.9765,-601.1 "/>
<text text-anchor="middle" x="413.8678" y="-584.5" font-family="Times,serif" font-size="14.00" fill="#000000">F</text>
</g>
<!-- Node0x558277e7d370&#45;&gt;Node0x558277e7d9c0 -->
<g id="edge10" class="edge">
<title>Node0x558277e7d370:s1&#45;&gt;Node0x558277e7d9c0</title>
<path fill="none" stroke="#000000" d="M423.1894,-717.9C423.1894,-699.244 414.5302,-682.2069 402.8056,-667.6893"/>
<polygon fill="#000000" stroke="#000000" points="405.2191,-665.1312 396.0121,-659.8888 399.9403,-669.7285 405.2191,-665.1312"/>
</g>
<!-- Node0x558277e7ffb0 -->
<g id="node14" class="node">
<title>Node0x558277e7ffb0</title>
<polygon fill="#ead5c9" fill-opacity="0.439216" stroke="#3d50c3" points="544.6073,-563.5 544.6073,-672.3 811.7715,-672.3 811.7715,-563.5 544.6073,-563.5"/>
<text text-anchor="start" x="552.6073" y="-655.7" font-family="Times,serif" font-size="14.00" fill="#000000">if.then34: </text>
<text text-anchor="start" x="552.6073" y="-638.9" font-family="Times,serif" font-size="14.00" fill="#000000"> %add35 = add nsw i32 %i5, 17</text>
<text text-anchor="start" x="552.6073" y="-622.1" font-family="Times,serif" font-size="14.00" fill="#000000"> store i32 %add35, i32* %a, align 4, !tbaa !4</text>
<text text-anchor="start" x="552.6073" y="-605.3" font-family="Times,serif" font-size="14.00" fill="#000000"> %add36 = add nsw i32 %mul32, 7</text>
<text text-anchor="start" x="552.6073" y="-588.5" font-family="Times,serif" font-size="14.00" fill="#000000"> store i32 %add36, i32* %b, align 4, !tbaa !4</text>
<text text-anchor="start" x="552.6073" y="-571.7" font-family="Times,serif" font-size="14.00" fill="#000000"> br label %new_label</text>
</g>
<!-- Node0x558277e7d3f0&#45;&gt;Node0x558277e7ffb0 -->
<g id="edge16" class="edge">
<title>Node0x558277e7d3f0:s0&#45;&gt;Node0x558277e7ffb0</title>
<path fill="none" stroke="#000000" d="M678.1894,-708.9C678.1894,-700.4971 678.1894,-691.6578 678.1894,-682.9261"/>
<polygon fill="#000000" stroke="#000000" points="681.6895,-682.7578 678.1894,-672.7578 674.6895,-682.7578 681.6895,-682.7578"/>
</g>
<!-- Node0x558277e80030 -->
<g id="node15" class="node">
<title>Node0x558277e80030</title>
<polygon fill="#ead5c9" fill-opacity="0.439216" stroke="#3d50c3" points="829.824,-563.5 829.824,-672.3 1098.5548,-672.3 1098.5548,-563.5 829.824,-563.5"/>
<text text-anchor="start" x="837.824" y="-655.7" font-family="Times,serif" font-size="14.00" fill="#000000">if.else37: </text>
<text text-anchor="start" x="837.824" y="-638.9" font-family="Times,serif" font-size="14.00" fill="#000000"> %mul38 = shl nsw i32 %add31, 2</text>
<text text-anchor="start" x="837.824" y="-622.1" font-family="Times,serif" font-size="14.00" fill="#000000"> store i32 %mul38, i32* %a, align 4, !tbaa !4</text>
<text text-anchor="start" x="837.824" y="-605.3" font-family="Times,serif" font-size="14.00" fill="#000000"> %mul39 = mul i32 %storemerge, 216</text>
<text text-anchor="start" x="837.824" y="-588.5" font-family="Times,serif" font-size="14.00" fill="#000000"> store i32 %mul39, i32* %b, align 4, !tbaa !4</text>
<text text-anchor="start" x="837.824" y="-571.7" font-family="Times,serif" font-size="14.00" fill="#000000"> br label %new_label</text>
</g>
<!-- Node0x558277e7d3f0&#45;&gt;Node0x558277e80030 -->
<g id="edge17" class="edge">
<title>Node0x558277e7d3f0:s1&#45;&gt;Node0x558277e80030</title>
<path fill="none" stroke="#000000" d="M965.1894,-721.9C984.6057,-721.9 987.5341,-703.5506 984.4002,-682.2668"/>
<polygon fill="#000000" stroke="#000000" points="987.8248,-681.5372 982.5712,-672.3367 980.9406,-682.8053 987.8248,-681.5372"/>
</g>
<!-- Node0x558277e7d940&#45;&gt;Node0x558277e7d080 -->
<g id="edge20" class="edge">
<title>Node0x558277e7d940&#45;&gt;Node0x558277e7d080</title>
<path fill="none" stroke="#000000" d="M796.7478,-367.2647C763.355,-297.0078 705.5717,-196.7512 626.1894,-137 609.0238,-124.0794 589.565,-113.3833 569.3481,-104.535"/>
<polygon fill="#000000" stroke="#000000" points="570.5857,-101.2584 560.0114,-100.5982 567.866,-107.7085 570.5857,-101.2584"/>
</g>
<!-- Node0x558277e7dc30 -->
<g id="node11" class="node">
<title>Node0x558277e7dc30</title>
<polygon fill="#c7d7f0" fill-opacity="0.439216" stroke="#3d50c3" points="64.2167,-400.9 64.2167,-492.9 332.1621,-492.9 332.1621,-400.9 64.2167,-400.9"/>
<text text-anchor="start" x="72.2167" y="-476.3" font-family="Times,serif" font-size="14.00" fill="#000000">if.then19: </text>
<text text-anchor="start" x="72.2167" y="-459.5" font-family="Times,serif" font-size="14.00" fill="#000000"> %mul20 = mul nsw i32 %add13, 7</text>
<text text-anchor="start" x="72.2167" y="-442.7" font-family="Times,serif" font-size="14.00" fill="#000000"> store i32 %mul20, i32* %a, align 4, !tbaa !4</text>
<text text-anchor="start" x="72.2167" y="-425.9" font-family="Times,serif" font-size="14.00" fill="#000000"> %mul21 = mul i32 %storemerge, 144</text>
<text text-anchor="start" x="72.2167" y="-409.1" font-family="Times,serif" font-size="14.00" fill="#000000"> br label %if.end27</text>
</g>
<!-- Node0x558277e7d9c0&#45;&gt;Node0x558277e7dc30 -->
<g id="edge11" class="edge">
<title>Node0x558277e7d9c0:s0&#45;&gt;Node0x558277e7dc30</title>
<path fill="none" stroke="#000000" d="M192.1894,-588.9C156.0589,-588.9 163.2232,-542.4432 175.9753,-502.6743"/>
<polygon fill="#000000" stroke="#000000" points="179.3573,-503.5973 179.2224,-493.0033 172.7214,-501.3692 179.3573,-503.5973"/>
</g>
<!-- Node0x558277e7e4c0 -->
<g id="node12" class="node">
<title>Node0x558277e7e4c0</title>
<polygon fill="#c7d7f0" fill-opacity="0.439216" stroke="#3d50c3" points="350,-384.1 350,-509.7 616.3788,-509.7 616.3788,-384.1 350,-384.1"/>
<text text-anchor="start" x="358" y="-493.1" font-family="Times,serif" font-size="14.00" fill="#000000">if.else22: </text>
<text text-anchor="start" x="358" y="-476.3" font-family="Times,serif" font-size="14.00" fill="#000000"> %mul23 = mul nsw i32 %add13, 5</text>
<text text-anchor="start" x="358" y="-459.5" font-family="Times,serif" font-size="14.00" fill="#000000"> %add24 = add nsw i32 %mul23, 4</text>
<text text-anchor="start" x="358" y="-442.7" font-family="Times,serif" font-size="14.00" fill="#000000"> store i32 %add24, i32* %a, align 4, !tbaa !4</text>
<text text-anchor="start" x="358" y="-425.9" font-family="Times,serif" font-size="14.00" fill="#000000"> %mul25 = mul i32 %storemerge, 144</text>
<text text-anchor="start" x="358" y="-409.1" font-family="Times,serif" font-size="14.00" fill="#000000"> %add26 = or i32 %mul25, 3</text>
<text text-anchor="start" x="358" y="-392.3" font-family="Times,serif" font-size="14.00" fill="#000000"> br label %if.end27</text>
</g>
<!-- Node0x558277e7d9c0&#45;&gt;Node0x558277e7e4c0 -->
<g id="edge12" class="edge">
<title>Node0x558277e7d9c0:s1&#45;&gt;Node0x558277e7e4c0</title>
<path fill="none" stroke="#000000" d="M488.1894,-588.9C503.625,-588.9 502.7742,-554.9652 497.8716,-520.2738"/>
<polygon fill="#000000" stroke="#000000" points="501.2748,-519.3714 496.3131,-510.0102 494.3541,-520.4224 501.2748,-519.3714"/>
</g>
<!-- Node0x558277e7e870 -->
<g id="node13" class="node">
<title>Node0x558277e7e870</title>
<polygon fill="#ead5c9" fill-opacity="0.439216" stroke="#3d50c3" points="159.0706,-137.5 159.0706,-330.3 617.3082,-330.3 617.3082,-137.5 159.0706,-137.5"/>
<text text-anchor="start" x="167.0706" y="-313.7" font-family="Times,serif" font-size="14.00" fill="#000000">if.end27: </text>
<text text-anchor="start" x="167.0706" y="-296.9" font-family="Times,serif" font-size="14.00" fill="#000000"> %storemerge48 = phi i32 [ %add26, %if.else22 ], [ %mul21, %if.then19 ]</text>
<text text-anchor="start" x="167.0706" y="-280.1" font-family="Times,serif" font-size="14.00" fill="#000000"> %tau3 = call i32 (...) @llvm.tau.i32(i32 %storemerge48, i32 %add26)</text>
<text text-anchor="start" x="167.0706" y="-263.3" font-family="Times,serif" font-size="14.00" fill="#000000"> %tau1 = call i32 (...) @llvm.tau.i32(i32 %storemerge, i32 %add3, i32 %add5)</text>
<text text-anchor="start" x="167.0706" y="-246.5" font-family="Times,serif" font-size="14.00" fill="#000000"> store i32 %storemerge48, i32* %b, align 4, !tbaa !4</text>
<text text-anchor="start" x="167.0706" y="-229.7" font-family="Times,serif" font-size="14.00" fill="#000000"> %i6 = load i32, i32* %a, align 4, !tbaa !4</text>
<text text-anchor="start" x="167.0706" y="-212.9" font-family="Times,serif" font-size="14.00" fill="#000000"> %add28 = add nsw i32 %i6, %storemerge48</text>
<text text-anchor="start" x="167.0706" y="-196.1" font-family="Times,serif" font-size="14.00" fill="#000000"> store i32 %add28, i32* %a, align 4, !tbaa !4</text>
<text text-anchor="start" x="167.0706" y="-179.3" font-family="Times,serif" font-size="14.00" fill="#000000"> %mul29 = mul nsw i32 %add28, %storemerge48</text>
<text text-anchor="start" x="167.0706" y="-162.5" font-family="Times,serif" font-size="14.00" fill="#000000"> store i32 %mul29, i32* %b, align 4, !tbaa !4</text>
<text text-anchor="start" x="167.0706" y="-145.7" font-family="Times,serif" font-size="14.00" fill="#000000"> br label %end_label</text>
</g>
<!-- Node0x558277e7dc30&#45;&gt;Node0x558277e7e870 -->
<g id="edge13" class="edge">
<title>Node0x558277e7dc30&#45;&gt;Node0x558277e7e870</title>
<path fill="none" stroke="#000000" d="M239.4166,-400.6822C255.9882,-382.1045 275.8148,-359.8778 295.5085,-337.8002"/>
<polygon fill="#000000" stroke="#000000" points="298.1324,-340.1166 302.1772,-330.3242 292.9086,-335.4569 298.1324,-340.1166"/>
</g>
<!-- Node0x558277e7e4c0&#45;&gt;Node0x558277e7e870 -->
<g id="edge14" class="edge">
<title>Node0x558277e7e4c0&#45;&gt;Node0x558277e7e870</title>
<path fill="none" stroke="#000000" d="M455.0719,-383.8575C448.8645,-369.9399 442.124,-354.8271 435.3916,-339.7322"/>
<polygon fill="#000000" stroke="#000000" points="438.4754,-338.0538 431.2055,-330.3467 432.0824,-340.9052 438.4754,-338.0538"/>
</g>
<!-- Node0x558277e7e870&#45;&gt;Node0x558277e7d080 -->
<g id="edge15" class="edge">
<title>Node0x558277e7e870&#45;&gt;Node0x558277e7d080</title>
<path fill="none" stroke="#000000" d="M388.1894,-137.4056C388.1894,-128.2438 388.1894,-119.2532 388.1894,-110.8641"/>
<polygon fill="#000000" stroke="#000000" points="391.6895,-110.592 388.1894,-100.592 384.6895,-110.5921 391.6895,-110.592"/>
</g>
<!-- Node0x558277e7ffb0&#45;&gt;Node0x558277e7d940 -->
<g id="edge18" class="edge">
<title>Node0x558277e7ffb0&#45;&gt;Node0x558277e7d940</title>
<path fill="none" stroke="#000000" d="M726.7011,-563.3244C735.0092,-553.9777 743.8239,-544.0612 752.666,-534.1138"/>
<polygon fill="#000000" stroke="#000000" points="755.3974,-536.3093 759.4251,-526.5098 750.1655,-531.6587 755.3974,-536.3093"/>
</g>
<!-- Node0x558277e80030&#45;&gt;Node0x558277e7d940 -->
<g id="edge19" class="edge">
<title>Node0x558277e80030&#45;&gt;Node0x558277e7d940</title>
<path fill="none" stroke="#000000" d="M921.4225,-563.3244C914.1701,-554.0694 906.4798,-544.2556 898.7616,-534.4064"/>
<polygon fill="#000000" stroke="#000000" points="901.4967,-532.2222 892.5737,-526.5098 895.9869,-536.5399 901.4967,-532.2222"/>
</g>
</g>
</svg>
