<?xml version="1.0" encoding="UTF-8" standalone="no"?>
<!DOCTYPE svg PUBLIC "-//W3C//DTD SVG 1.1//EN"
 "http://www.w3.org/Graphics/SVG/1.1/DTD/svg11.dtd">
<!-- Generated by graphviz version 2.43.0 (0)
 -->
<!-- Title: CFG for &#39;main&#39; function Pages: 1 -->
<svg width="996pt" height="859pt"
 viewBox="0.00 0.00 996.00 859.00" xmlns="http://www.w3.org/2000/svg" xmlns:xlink="http://www.w3.org/1999/xlink">
<g id="graph0" class="graph" transform="scale(1 1) rotate(0) translate(4 855)">
<title>CFG for &#39;main&#39; function</title>
<polygon fill="white" stroke="transparent" points="-4,4 -4,-855 992,-855 992,4 -4,4"/>
<text text-anchor="middle" x="494" y="-7.8" font-family="Times,serif" font-size="14.00">CFG for &#39;main&#39; function</text>
<!-- Node0x55a42e985260 -->
<g id="node1" class="node">
<title>Node0x55a42e985260</title>
<polygon fill="none" stroke="#b70d28" points="292.5,-684.5 292.5,-850.5 597.5,-850.5 597.5,-684.5 292.5,-684.5"/>
<text text-anchor="start" x="300.5" y="-835.3" font-family="Courier,monospace" font-size="14.00">entry:</text>
<text text-anchor="start" x="300.5" y="-820.3" font-family="Courier,monospace" font-size="14.00"> %m = alloca i32, align 4</text>
<text text-anchor="start" x="300.5" y="-805.3" font-family="Courier,monospace" font-size="14.00"> %call = call ...</text>
<text text-anchor="start" x="300.5" y="-790.3" font-family="Courier,monospace" font-size="14.00"> %i = load i32, i32* %m, align 4</text>
<text text-anchor="start" x="300.5" y="-775.3" font-family="Courier,monospace" font-size="14.00"> switch i32 %i, label %sw.default [</text>
<text text-anchor="start" x="300.5" y="-760.3" font-family="Courier,monospace" font-size="14.00"> i32 2, label %sw.bb</text>
<text text-anchor="start" x="300.5" y="-745.3" font-family="Courier,monospace" font-size="14.00"> i32 4, label %sw.bb1</text>
<text text-anchor="start" x="300.5" y="-730.3" font-family="Courier,monospace" font-size="14.00"> i32 6, label %sw.bb4</text>
<text text-anchor="start" x="300.5" y="-715.3" font-family="Courier,monospace" font-size="14.00"> ]</text>
<polyline fill="none" stroke="#b70d28" points="292.5,-707.5 597.5,-707.5 "/>
<text text-anchor="middle" x="336.5" y="-692.3" font-family="Courier,monospace" font-size="14.00">def</text>
<polyline fill="none" stroke="#b70d28" points="380.5,-684.5 380.5,-707.5 "/>
<text text-anchor="middle" x="416.5" y="-692.3" font-family="Courier,monospace" font-size="14.00">2</text>
<polyline fill="none" stroke="#b70d28" points="452.5,-684.5 452.5,-707.5 "/>
<text text-anchor="middle" x="488.5" y="-692.3" font-family="Courier,monospace" font-size="14.00">4</text>
<polyline fill="none" stroke="#b70d28" points="524.5,-684.5 524.5,-707.5 "/>
<text text-anchor="middle" x="561" y="-692.3" font-family="Courier,monospace" font-size="14.00">6</text>
</g>
<!-- Node0x55a42e9856a0 -->
<g id="node2" class="node">
<title>Node0x55a42e9856a0</title>
<polygon fill="none" stroke="#3d50c3" points="0,-594.5 0,-632.5 182,-632.5 182,-594.5 0,-594.5"/>
<text text-anchor="start" x="8" y="-617.3" font-family="Courier,monospace" font-size="14.00">sw.default: </text>
<text text-anchor="start" x="8" y="-602.3" font-family="Courier,monospace" font-size="14.00"> br label %sw.epilog</text>
</g>
<!-- Node0x55a42e985260&#45;&gt;Node0x55a42e9856a0 -->
<g id="edge1" class="edge">
<title>Node0x55a42e985260:s0&#45;&gt;Node0x55a42e9856a0</title>
<path fill="none" stroke="black" d="M291,-695.5C229.44,-695.5 164.5,-662.13 125.89,-638.22"/>
<polygon fill="black" stroke="black" points="127.45,-635.07 117.13,-632.68 123.71,-640.98 127.45,-635.07"/>
</g>
<!-- Node0x55a42e9857b0 -->
<g id="node3" class="node">
<title>Node0x55a42e9857b0</title>
<polygon fill="none" stroke="#3d50c3" points="200.5,-579.5 200.5,-647.5 439.5,-647.5 439.5,-579.5 200.5,-579.5"/>
<text text-anchor="start" x="208.5" y="-632.3" font-family="Courier,monospace" font-size="14.00">sw.bb: </text>
<text text-anchor="start" x="208.5" y="-617.3" font-family="Courier,monospace" font-size="14.00"> %mul = mul nsw i32 2, 1</text>
<text text-anchor="start" x="208.5" y="-602.3" font-family="Courier,monospace" font-size="14.00"> %add = add nsw i32 %mul, 5</text>
<text text-anchor="start" x="208.5" y="-587.3" font-family="Courier,monospace" font-size="14.00"> br label %sw.epilog</text>
</g>
<!-- Node0x55a42e985260&#45;&gt;Node0x55a42e9857b0 -->
<g id="edge2" class="edge">
<title>Node0x55a42e985260:s1&#45;&gt;Node0x55a42e9857b0</title>
<path fill="none" stroke="black" d="M416,-684C416,-672.66 411.55,-662.98 404.56,-654.77"/>
<polygon fill="black" stroke="black" points="407.02,-652.27 397.49,-647.64 402.05,-657.2 407.02,-652.27"/>
</g>
<!-- Node0x55a42e9858b0 -->
<g id="node4" class="node">
<title>Node0x55a42e9858b0</title>
<polygon fill="none" stroke="#3d50c3" points="458,-579.5 458,-647.5 714,-647.5 714,-579.5 458,-579.5"/>
<text text-anchor="start" x="466" y="-632.3" font-family="Courier,monospace" font-size="14.00">sw.bb1: </text>
<text text-anchor="start" x="466" y="-617.3" font-family="Courier,monospace" font-size="14.00"> %mul2 = mul nsw i32 2, 1</text>
<text text-anchor="start" x="466" y="-602.3" font-family="Courier,monospace" font-size="14.00"> %add3 = add nsw i32 %mul2, 5</text>
<text text-anchor="start" x="466" y="-587.3" font-family="Courier,monospace" font-size="14.00"> br label %sw.epilog</text>
</g>
<!-- Node0x55a42e985260&#45;&gt;Node0x55a42e9858b0 -->
<g id="edge3" class="edge">
<title>Node0x55a42e985260:s2&#45;&gt;Node0x55a42e9858b0</title>
<path fill="none" stroke="black" d="M489,-684C489,-672.97 493.2,-663.52 499.84,-655.47"/>
<polygon fill="black" stroke="black" points="502.77,-657.49 507.24,-647.88 497.76,-652.6 502.77,-657.49"/>
</g>
<!-- Node0x55a42e9859b0 -->
<g id="node5" class="node">
<title>Node0x55a42e9859b0</title>
<polygon fill="none" stroke="#3d50c3" points="732,-579.5 732,-647.5 988,-647.5 988,-579.5 732,-579.5"/>
<text text-anchor="start" x="740" y="-632.3" font-family="Courier,monospace" font-size="14.00">sw.bb4: </text>
<text text-anchor="start" x="740" y="-617.3" font-family="Courier,monospace" font-size="14.00"> %mul5 = mul nsw i32 2, 1</text>
<text text-anchor="start" x="740" y="-602.3" font-family="Courier,monospace" font-size="14.00"> %add6 = add nsw i32 %mul5, 1</text>
<text text-anchor="start" x="740" y="-587.3" font-family="Courier,monospace" font-size="14.00"> br label %sw.epilog</text>
</g>
<!-- Node0x55a42e985260&#45;&gt;Node0x55a42e9859b0 -->
<g id="edge4" class="edge">
<title>Node0x55a42e985260:s3&#45;&gt;Node0x55a42e9859b0</title>
<path fill="none" stroke="black" d="M599,-695.5C663.21,-695.5 732.46,-672.87 783.49,-651.53"/>
<polygon fill="black" stroke="black" points="784.97,-654.7 792.8,-647.56 782.23,-648.26 784.97,-654.7"/>
</g>
<!-- Node0x55a42e985c60 -->
<g id="node6" class="node">
<title>Node0x55a42e985c60</title>
<polygon fill="none" stroke="#b70d28" points="127,-391.5 127,-542.5 779,-542.5 779,-391.5 127,-391.5"/>
<text text-anchor="start" x="135" y="-527.3" font-family="Courier,monospace" font-size="14.00">sw.epilog: </text>
<text text-anchor="start" x="135" y="-512.3" font-family="Courier,monospace" font-size="14.00" stroke="green" stroke-width="0.4"> %x.0 = phi i32 [ 2, %sw.default ], [ %add6, %sw.bb4 ], [ %add3, %sw.bb1 ], [</text>
<text text-anchor="start" x="135" y="-497.3" font-family="Courier,monospace" font-size="14.00" stroke="green" stroke-width="0.4">... %add, %sw.bb ]</text>
<text text-anchor="start" x="135" y="-482.3" font-family="Courier,monospace" font-size="14.00"> %mul7 = mul nsw i32 2, %x.0</text>
<text text-anchor="start" x="135" y="-467.3" font-family="Courier,monospace" font-size="14.00"> %add8 = add nsw i32 %mul7, 10</text>
<text text-anchor="start" x="135" y="-452.3" font-family="Courier,monospace" font-size="14.00"> %add9 = add nsw i32 9, %x.0</text>
<text text-anchor="start" x="135" y="-437.3" font-family="Courier,monospace" font-size="14.00"> %cmp = icmp sle i32 %add8, %add9</text>
<text text-anchor="start" x="135" y="-422.3" font-family="Courier,monospace" font-size="14.00"> br i1 %cmp, label %if.end, label %if.else</text>
<polyline fill="none" stroke="#b70d28" points="127,-414.5 779,-414.5 "/>
<text text-anchor="middle" x="290" y="-399.3" font-family="Courier,monospace" font-size="14.00">T</text>
<polyline fill="none" stroke="#b70d28" points="453,-391.5 453,-414.5 "/>
<text text-anchor="middle" x="616" y="-399.3" font-family="Courier,monospace" font-size="14.00">F</text>
</g>
<!-- Node0x55a42e9856a0&#45;&gt;Node0x55a42e985c60 -->
<g id="edge8" class="edge">
<title>Node0x55a42e9856a0&#45;&gt;Node0x55a42e985c60</title>
<path fill="none" stroke="black" d="M136.12,-594.49C167.41,-582 211.48,-564.41 256.83,-546.31"/>
<polygon fill="black" stroke="black" points="258.23,-549.52 266.22,-542.56 255.63,-543.02 258.23,-549.52"/>
</g>
<!-- Node0x55a42e9857b0&#45;&gt;Node0x55a42e985c60 -->
<g id="edge5" class="edge">
<title>Node0x55a42e9857b0&#45;&gt;Node0x55a42e985c60</title>
<path fill="none" stroke="black" d="M350.51,-579.35C358.66,-570.5 367.84,-560.53 377.27,-550.28"/>
<polygon fill="black" stroke="black" points="379.97,-552.51 384.17,-542.79 374.82,-547.77 379.97,-552.51"/>
</g>
<!-- Node0x55a42e9858b0&#45;&gt;Node0x55a42e985c60 -->
<g id="edge6" class="edge">
<title>Node0x55a42e9858b0&#45;&gt;Node0x55a42e985c60</title>
<path fill="none" stroke="black" d="M555.49,-579.35C547.34,-570.5 538.16,-560.53 528.73,-550.28"/>
<polygon fill="black" stroke="black" points="531.18,-547.77 521.83,-542.79 526.03,-552.51 531.18,-547.77"/>
</g>
<!-- Node0x55a42e9859b0&#45;&gt;Node0x55a42e985c60 -->
<g id="edge7" class="edge">
<title>Node0x55a42e9859b0&#45;&gt;Node0x55a42e985c60</title>
<path fill="none" stroke="black" d="M766.88,-579.44C738.48,-569.35 705.96,-557.81 672.86,-546.06"/>
<polygon fill="black" stroke="black" points="673.64,-542.62 663.04,-542.57 671.3,-549.22 673.64,-542.62"/>
</g>
<!-- Node0x55a42e986740 -->
<g id="node7" class="node">
<title>Node0x55a42e986740</title>
<polygon fill="none" stroke="#b70d28" points="188.5,-113.5 188.5,-181.5 493.5,-181.5 493.5,-113.5 188.5,-113.5"/>
<text text-anchor="start" x="196.5" y="-166.3" font-family="Courier,monospace" font-size="14.00">if.end: </text>
<text text-anchor="start" x="196.5" y="-151.3" font-family="Courier,monospace" font-size="14.00"> %add17 = add nsw i32 %add8, %x.0</text>
<text text-anchor="start" x="196.5" y="-136.3" font-family="Courier,monospace" font-size="14.00"> store i32 %add17, i32* %m, align 4</text>
<text text-anchor="start" x="196.5" y="-121.3" font-family="Courier,monospace" font-size="14.00"> br label %end</text>
</g>
<!-- Node0x55a42e985c60&#45;&gt;Node0x55a42e986740 -->
<g id="edge9" class="edge">
<title>Node0x55a42e985c60:s0&#45;&gt;Node0x55a42e986740</title>
<path fill="none" stroke="black" d="M290,-391C290,-319.91 311.25,-239.55 326.32,-191.52"/>
<polygon fill="black" stroke="black" points="329.72,-192.36 329.43,-181.77 323.05,-190.23 329.72,-192.36"/>
</g>
<!-- Node0x55a42e9867b0 -->
<g id="node8" class="node">
<title>Node0x55a42e9867b0</title>
<polygon fill="none" stroke="#3d50c3" points="454.5,-218.5 454.5,-354.5 759.5,-354.5 759.5,-218.5 454.5,-218.5"/>
<text text-anchor="start" x="462.5" y="-339.3" font-family="Courier,monospace" font-size="14.00">if.else: </text>
<text text-anchor="start" x="462.5" y="-324.3" font-family="Courier,monospace" font-size="14.00"> %mul10 = mul nsw i32 3, %x.0</text>
<text text-anchor="start" x="462.5" y="-309.3" font-family="Courier,monospace" font-size="14.00"> %add11 = add nsw i32 %add8, %mul10</text>
<text text-anchor="start" x="462.5" y="-294.3" font-family="Courier,monospace" font-size="14.00"> switch i32 %add11, label %if.end [</text>
<text text-anchor="start" x="462.5" y="-279.3" font-family="Courier,monospace" font-size="14.00"> i32 200, label %sw.bb13</text>
<text text-anchor="start" x="462.5" y="-264.3" font-family="Courier,monospace" font-size="14.00"> i32 300, label %sw.bb15</text>
<text text-anchor="start" x="462.5" y="-249.3" font-family="Courier,monospace" font-size="14.00"> ]</text>
<polyline fill="none" stroke="#3d50c3" points="454.5,-241.5 759.5,-241.5 "/>
<text text-anchor="middle" x="505" y="-226.3" font-family="Courier,monospace" font-size="14.00">def</text>
<polyline fill="none" stroke="#3d50c3" points="555.5,-218.5 555.5,-241.5 "/>
<text text-anchor="middle" x="606.5" y="-226.3" font-family="Courier,monospace" font-size="14.00">200</text>
<polyline fill="none" stroke="#3d50c3" points="657.5,-218.5 657.5,-241.5 "/>
<text text-anchor="middle" x="708.5" y="-226.3" font-family="Courier,monospace" font-size="14.00">300</text>
</g>
<!-- Node0x55a42e985c60&#45;&gt;Node0x55a42e9867b0 -->
<g id="edge10" class="edge">
<title>Node0x55a42e985c60:s1&#45;&gt;Node0x55a42e9867b0</title>
<path fill="none" stroke="black" d="M616,-391C616,-382.42 615.69,-373.45 615.18,-364.53"/>
<polygon fill="black" stroke="black" points="618.67,-364.27 614.53,-354.51 611.69,-364.72 618.67,-364.27"/>
</g>
<!-- Node0x55a42e9871f0 -->
<g id="node11" class="node">
<title>Node0x55a42e9871f0</title>
<polygon fill="none" stroke="#b70d28" points="341,-23.5 341,-76.5 597,-76.5 597,-23.5 341,-23.5"/>
<text text-anchor="start" x="349" y="-61.3" font-family="Courier,monospace" font-size="14.00">end: </text>
<text text-anchor="start" x="349" y="-46.3" font-family="Courier,monospace" font-size="14.00"> %add18 = add nsw i32 1, %x.0</text>
<text text-anchor="start" x="349" y="-31.3" font-family="Courier,monospace" font-size="14.00"> ret i32 0</text>
</g>
<!-- Node0x55a42e986740&#45;&gt;Node0x55a42e9871f0 -->
<g id="edge15" class="edge">
<title>Node0x55a42e986740&#45;&gt;Node0x55a42e9871f0</title>
<path fill="none" stroke="black" d="M385.41,-113.37C398.8,-103.37 413.46,-92.43 426.72,-82.55"/>
<polygon fill="black" stroke="black" points="428.84,-85.33 434.76,-76.55 424.65,-79.72 428.84,-85.33"/>
</g>
<!-- Node0x55a42e9867b0&#45;&gt;Node0x55a42e986740 -->
<g id="edge11" class="edge">
<title>Node0x55a42e9867b0:s0&#45;&gt;Node0x55a42e986740</title>
<path fill="none" stroke="black" d="M453,-229.5C422.44,-229.5 394.56,-209.45 374.27,-189.3"/>
<polygon fill="black" stroke="black" points="376.6,-186.68 367.14,-181.91 371.56,-191.54 376.6,-186.68"/>
</g>
<!-- Node0x55a42e986a90 -->
<g id="node9" class="node">
<title>Node0x55a42e986a90</title>
<polygon fill="none" stroke="#3d50c3" points="511.5,-121 511.5,-174 684.5,-174 684.5,-121 511.5,-121"/>
<text text-anchor="start" x="519.5" y="-158.8" font-family="Courier,monospace" font-size="14.00">sw.bb13: </text>
<text text-anchor="start" x="519.5" y="-143.8" font-family="Courier,monospace" font-size="14.00">%call14 = call ... </text>
<text text-anchor="start" x="519.5" y="-128.8" font-family="Courier,monospace" font-size="14.00"> br label %end</text>
</g>
<!-- Node0x55a42e9867b0&#45;&gt;Node0x55a42e986a90 -->
<g id="edge12" class="edge">
<title>Node0x55a42e9867b0:s1&#45;&gt;Node0x55a42e986a90</title>
<path fill="none" stroke="black" d="M606,-218C606,-206.96 604.99,-194.99 603.69,-184.15"/>
<polygon fill="black" stroke="black" points="607.15,-183.62 602.37,-174.16 600.21,-184.53 607.15,-183.62"/>
</g>
<!-- Node0x55a42e986e50 -->
<g id="node10" class="node">
<title>Node0x55a42e986e50</title>
<polygon fill="none" stroke="#3d50c3" points="702.5,-121 702.5,-174 933.5,-174 933.5,-121 702.5,-121"/>
<text text-anchor="start" x="710.5" y="-158.8" font-family="Courier,monospace" font-size="14.00">sw.bb15: </text>
<text text-anchor="start" x="710.5" y="-143.8" font-family="Courier,monospace" font-size="14.00"> call void @exit(i32 0) #6</text>
<text text-anchor="start" x="710.5" y="-128.8" font-family="Courier,monospace" font-size="14.00"> unreachable</text>
</g>
<!-- Node0x55a42e9867b0&#45;&gt;Node0x55a42e986e50 -->
<g id="edge13" class="edge">
<title>Node0x55a42e9867b0:s2&#45;&gt;Node0x55a42e986e50</title>
<path fill="none" stroke="black" d="M761,-229.5C784.97,-229.5 799.73,-205.49 808.21,-183.62"/>
<polygon fill="black" stroke="black" points="811.53,-184.72 811.57,-174.13 804.93,-182.39 811.53,-184.72"/>
</g>
<!-- Node0x55a42e986a90&#45;&gt;Node0x55a42e9871f0 -->
<g id="edge14" class="edge">
<title>Node0x55a42e986a90&#45;&gt;Node0x55a42e9871f0</title>
<path fill="none" stroke="black" d="M563.43,-120.91C547.52,-109.13 528.5,-95.05 511.71,-82.62"/>
<polygon fill="black" stroke="black" points="513.78,-79.8 503.67,-76.66 509.62,-85.43 513.78,-79.8"/>
</g>
</g>
</svg>
